<svg id="Layer_1" data-name="Layer 1" xmlns="http://www.w3.org/2000/svg" xmlns:xlink="http://www.w3.org/1999/xlink" viewBox="0 0 536.14 510.87"><defs><style>.cls-1,.cls-31{fill:#fff;}.cls-2,.cls-4{fill:#6c63ff;}.cls-14,.cls-2,.cls-6{opacity:0.1;}.cls-2,.cls-27,.cls-31,.cls-6,.cls-9{isolation:isolate;}.cls-3{opacity:0.5;}.cls-5{fill:none;stroke:#535461;stroke-miterlimit:10;stroke-width:2px;}.cls-7{fill:#ffd037;}.cls-8{fill:#a8a8a8;}.cls-9{opacity:0.2;}.cls-10{fill:#e6e6f0;}.cls-11{fill:#fdc2cc;}.cls-12{fill:#565171;}.cls-13{fill:#b45181;}.cls-15{fill:#f569bc;}.cls-16{fill:#f7df1e;}.cls-17{fill:url(#linear-gradient);}.cls-18{fill:#4f4d59;}.cls-19{fill:#c48c96;}.cls-20{fill:#714b4f;}.cls-21{fill:#ba7855;}.cls-22{fill:#503f43;}.cls-23{fill:#e44d26;}.cls-24{fill:#f16529;}.cls-25{fill:#ebebeb;}.cls-26{fill:url(#linear-gradient-2);}.cls-27,.cls-34{opacity:0.05;}.cls-28{fill:#264de4;}.cls-29{fill:#2965f1;}.cls-30{fill:#47465a;}.cls-31{opacity:0.3;}.cls-32{fill:#e1a0a7;}.cls-33{fill:#8f5a6a;}.cls-35{fill:#b6382c;}.cls-36{fill:#8c5ba4;}.cls-37{fill:#d5302b;}.cls-38{font-size:22.37px;font-family:MarkerFelt-Wide, Marker Felt;}.cls-39{letter-spacing:0.04em;}.cls-40{letter-spacing:0.04em;}.cls-41{letter-spacing:-0.05em;}.cls-42{letter-spacing:0.02em;}.cls-43{letter-spacing:0.03em;}.cls-44{letter-spacing:0.04em;}.cls-45{fill:url(#linear-gradient-3);}.cls-46{fill:#f5f5f5;}.cls-47{fill:#333;}.cls-48{fill:#fdb797;}</style><linearGradient id="linear-gradient" x1="576.47" y1="667.85" x2="576.47" y2="713.69" gradientTransform="matrix(1, 0, 0, -1, -84.99, 777.57)" gradientUnits="userSpaceOnUse"><stop offset="0" stop-color="gray" stop-opacity="0.25"/><stop offset="0.54" stop-color="gray" stop-opacity="0.12"/><stop offset="1" stop-color="gray" stop-opacity="0.1"/></linearGradient><linearGradient id="linear-gradient-2" x1="499.51" y1="657.67" x2="499.51" y2="711.18" xlink:href="#linear-gradient"/><linearGradient id="linear-gradient-3" x1="285.13" y1="328.98" x2="285.13" y2="670.1" gradientTransform="matrix(1, 0, 0, -1, -13.81, 839.84)" xlink:href="#linear-gradient"/></defs><title>dfsdf</title><ellipse class="cls-1" cx="367.54" cy="168.14" rx="15.81" ry="14.91"/><ellipse class="cls-1" cx="404.24" cy="131.29" rx="22.72" ry="21.43"/><ellipse class="cls-1" cx="436.22" cy="63.69" rx="99.93" ry="63.69"/><ellipse class="cls-2" cx="479.24" cy="82.65" rx="31.73" ry="5.56"/><g class="cls-3"><path class="cls-4" d="M465.88,40.23a1.65,1.65,0,0,0-1.21,1.18c-.51,1.53.67,2.57.28,4.16a2.9,2.9,0,0,1-.6,1.17A8.41,8.41,0,0,1,462.87,48a3.94,3.94,0,0,0-1.31,1.93,4.86,4.86,0,0,0-.06,2.51,8.88,8.88,0,0,0,.75,1.76,12.65,12.65,0,0,1,.76,2.22,4.83,4.83,0,0,1,.17,1.13,9.41,9.41,0,0,1-.15,1.5l-.72,4.53a11.94,11.94,0,0,0-.19,1.79,7.61,7.61,0,0,0,.22,1.78,7.21,7.21,0,0,0,1.11,3.07c.57.64,1.56.41,2.16-.87s.59-2.87,1.1-4.18c.8-2.06,2.39-2.34,3.27-4.31s.59-4.21,1-6.36c.3-1.55,1-3,1.35-4.48a12.89,12.89,0,0,0,.06-6.17,8,8,0,0,0-2.13-3.73,2.19,2.19,0,0,0-1.25-.74c-.5,0-.93.53-1.43.7S466.46,40.08,465.88,40.23Z" transform="translate(-13.81 -22.8)"/><path class="cls-5" d="M468.59,39.5s-.85,19.54-4.41,31.07" transform="translate(-13.81 -22.8)"/><path class="cls-5" d="M464.65,41.5a10.36,10.36,0,0,1,3.08,9.07" transform="translate(-13.81 -22.8)"/><path class="cls-5" d="M461.45,50.39s6.25,1.13,5.79,4.5" transform="translate(-13.81 -22.8)"/><path class="cls-5" d="M472.42,43.81s-2.53,2-4.78,7.65" transform="translate(-13.81 -22.8)"/><path class="cls-5" d="M470,60.89s-1.73,1.22-3.11-3" transform="translate(-13.81 -22.8)"/><path class="cls-5" d="M462.51,63.39S466,63,466.35,61" transform="translate(-13.81 -22.8)"/></g><path class="cls-4" d="M474.38,27.12a2.7,2.7,0,0,0-2.35,1.6c-.84,2.2,1.73,3.87,1.13,6.17a3.28,3.28,0,0,1-1.07,1.66,14.5,14.5,0,0,1-2.9,1.69,4.76,4.76,0,0,0-2.24,6.4,14.82,14.82,0,0,0,1.77,2.68,17.16,17.16,0,0,1,1.87,3.34,5.84,5.84,0,0,1,.5,1.67,9.14,9.14,0,0,1-.12,2.2l-.9,6.6a13.68,13.68,0,0,0-.17,2.61,9.73,9.73,0,0,0,.71,2.66c.68,1.79,1.41,3.65,2.69,4.64A2.93,2.93,0,0,0,477.67,70c1-1.74.84-4.15,1.72-6,1.38-3,4.64-3.19,6.2-6s.67-6.14,1.27-9.26c.43-2.24,1.6-4.25,2.2-6.45a13.82,13.82,0,0,0-.69-9.08,14.2,14.2,0,0,0-4.89-5.71,5.78,5.78,0,0,0-2.68-1.22c-1-.11-1.86.68-2.86.88C476.78,27.33,475.56,27,474.38,27.12Z" transform="translate(-13.81 -22.8)"/><path class="cls-5" d="M479.89,26.33s.82,28.69-5,45.28" transform="translate(-13.81 -22.8)"/><path class="cls-5" d="M472,28.86s8.29,5,7.58,13.7" transform="translate(-13.81 -22.8)"/><path class="cls-5" d="M466.56,41.61s13.08,2.34,12.56,7.25" transform="translate(-13.81 -22.8)"/><path class="cls-5" d="M488.39,33.09s-5,2.67-8.89,10.75" transform="translate(-13.81 -22.8)"/><path class="cls-5" d="M485.52,58s-3.41,1.62-6.84-4.82" transform="translate(-13.81 -22.8)"/><path class="cls-5" d="M470.44,60.86s7.23-.23,7.64-3.13" transform="translate(-13.81 -22.8)"/><path class="cls-4" d="M380.86,104.55s1.25,1.49-.58,3.72-3.36,4.14-2.75,5.53c0,0,2.78-4.16,5-4.22S383.34,107.05,380.86,104.55Z" transform="translate(-13.81 -22.8)"/><path class="cls-6" d="M380.86,104.55a1.66,1.66,0,0,1,.26.47c2.2,2.33,3.38,4.51,1.26,4.56-2,0-4.34,3.24-4.91,4l.07.18s2.78-4.16,5-4.22S383.34,107.05,380.86,104.55Z" transform="translate(-13.81 -22.8)"/><path class="cls-7" d="M383.2,106.44c0,.52-.07,1-.16,1s-.15-.43-.15-1,.09-.27.17-.27S383.2,105.92,383.2,106.44Z" transform="translate(-13.81 -22.8)"/><path class="cls-7" d="M384,107.06c-.51.25-.95.41-1,.34s.34-.32.85-.57.31-.06.35,0S384.51,106.81,384,107.06Z" transform="translate(-13.81 -22.8)"/><path class="cls-4" d="M374.1,108.57s-1.26,1.49.58,3.72,3.36,4.14,2.74,5.53c0,0-2.77-4.16-5-4.22S371.61,111.07,374.1,108.57Z" transform="translate(-13.81 -22.8)"/><path class="cls-6" d="M372.52,103.72a1.75,1.75,0,0,0-.26.46c-2.2,2.34-3.38,4.52-1.26,4.57s4.34,3.23,4.91,4a1.34,1.34,0,0,1-.07.18s-2.77-4.16-5-4.22S370,106.22,372.52,103.72Z" transform="translate(-13.81 -22.8)"/><path class="cls-7" d="M350.92,100.8c0,.52.06.94.15.94s.15-.42.15-.94-.08-.27-.16-.27S350.92,100.27,350.92,100.8Z" transform="translate(-13.81 -22.8)"/><path class="cls-7" d="M350.11,101.42c.51.25.95.41,1,.34s-.34-.32-.85-.57-.31-.07-.35,0S349.61,101.17,350.11,101.42Z" transform="translate(-13.81 -22.8)"/><path class="cls-8" d="M372.27,113.61s3.52-.1,4.58-.78,5.41-1.49,5.67-.41,5.29,5.43,1.32,5.46-9.23-.56-10.29-1.14S372.27,113.61,372.27,113.61Z" transform="translate(-13.81 -22.8)"/><path class="cls-9" d="M383.91,117.51c-4,0-9.23-.56-10.29-1.14-.8-.45-1.12-2-1.23-2.77h-.12s.23,2.56,1.28,3.14,6.32,1.17,10.29,1.14c1.15,0,1.54-.37,1.52-.92C385.2,117.29,384.76,117.5,383.91,117.51Z" transform="translate(-13.81 -22.8)"/><path class="cls-4" d="M518.23,103.93a1.54,1.54,0,0,0,.58-.78.69.69,0,0,0-.41-.8,1.23,1.23,0,0,0-1.06.34,1.49,1.49,0,0,1-1,.45,1.33,1.33,0,0,0,.48-1.33.49.49,0,0,0-.13-.27c-.21-.2-.58-.11-.83,0a2.66,2.66,0,0,0-1,2.32,3.78,3.78,0,0,1,0-1,.93.93,0,0,0-.4-.84,1.23,1.23,0,0,0-.6-.13,1.36,1.36,0,0,0-1,.25.8.8,0,0,0,0,1.08,3.76,3.76,0,0,0,1,.74,2.2,2.2,0,0,1,.73.62.54.54,0,0,1,0,.11h2.2A5.76,5.76,0,0,0,518.23,103.93Z" transform="translate(-13.81 -22.8)"/><path class="cls-2" d="M392.79,91.24c4.77,5.48,2.92,13.49-.12,19.89-1,2.15-2.16,4.42-1.73,6.72.52,2.81,3.3,4.88,6.23,6a20.34,20.34,0,0,0,16.6-1.23c4.24-2.38,7.27-6.24,11.57-8.51,7.21-3.79,16.37-2.36,24.19.25,5.54,1.85,11.59,4.26,17.09,2.32,3.86-1.35,6.54-4.66,8-8.17.7-1.69,1.21-3.52,2.55-4.87a9.63,9.63,0,0,1,2.91-1.85c9.76-4.36,22.07-2,31.53-6.86,6.4-3.26,10.5-9.43,12.31-15.85s1.61-13.16,1.15-19.78c-.33-4.7-.92-9.72-4.25-13.35-3.52-3.84-9.57-5.27-15-4.54S495.36,44.71,491,47.78c-5.45,3.83-10.5,8.59-17.19,10.14-4.56,1.06-9.35.48-14.05.28a162.32,162.32,0,0,0-23.52,1.22c-7.47.78-15,1.64-22.13,3.83-5,1.56-9.08,4.37-13.84,6.34-3.1,1.29-6.49,1.64-9.42,3.28-3.62,2-6.94,5.51-6,9.61C385.72,86.38,390.25,88.34,392.79,91.24Z" transform="translate(-13.81 -22.8)"/><ellipse class="cls-2" cx="439.86" cy="62.88" rx="64.2" ry="5.56"/><ellipse class="cls-2" cx="390.52" cy="94.97" rx="31.73" ry="5.56"/><path class="cls-10" d="M436.77,83.94l-.5.66s.55.66.6.74a9.37,9.37,0,0,0,1.6,0l.13-.49-.22-.58Z" transform="translate(-13.81 -22.8)"/><polygon class="cls-11" points="406.05 60.77 405.04 60.94 405.68 62.05 406.37 62.38 407.01 62.79 407.19 62.34 406.73 61.48 406.05 60.77"/><path class="cls-12" d="M436.31,72.86s5.35,1.15,6.36,2.43c0,0,.91.7,0,2a32.27,32.27,0,0,0-2.2,4.16s-.91,2.81-1.28,3-2.46.37-2.65-.4a7.17,7.17,0,0,0,1.19-2.48c0-.78,2-4.49,2-4.49a34.16,34.16,0,0,0-5.89-.16C432.38,77.19,434.44,72.4,436.31,72.86Z" transform="translate(-13.81 -22.8)"/><path class="cls-6" d="M436.31,72.86s5.35,1.15,6.36,2.43c0,0,.91.7,0,2a32.27,32.27,0,0,0-2.2,4.16s-.91,2.81-1.28,3-2.46.37-2.65-.4a7.17,7.17,0,0,0,1.19-2.48c0-.78,2-4.49,2-4.49a34.16,34.16,0,0,0-5.89-.16C432.38,77.19,434.44,72.4,436.31,72.86Z" transform="translate(-13.81 -22.8)"/><path class="cls-12" d="M435.22,74c0,.24,0,.51-.08.8A44.48,44.48,0,0,1,433.89,80,16.82,16.82,0,0,0,432.66,83c-.28,1.19-2.15,1.49-2.15,1.49a47.17,47.17,0,0,1-6.17.33c-1-.21-2.7.62-3.52.49s-1.32-1.85-1.32-1.85a10.85,10.85,0,0,0,4.11-.79,11.93,11.93,0,0,1,5.12-.45,1.71,1.71,0,0,0,1-.78,18.24,18.24,0,0,0,.23-4.62,5.37,5.37,0,0,1-.38-3.27,1.61,1.61,0,0,1,.38-.73Z" transform="translate(-13.81 -22.8)"/><path class="cls-6" d="M435.22,74c0,.24,0,.51-.08.8a5.31,5.31,0,0,1-2.7-.47,7.84,7.84,0,0,0-2.81-.72,1.52,1.52,0,0,1,.38-.72Z" transform="translate(-13.81 -22.8)"/><path class="cls-10" d="M435.85,73.45c-.21.54-.54,1.18-.54,1.18a5.62,5.62,0,0,1-2.88-.45,8.6,8.6,0,0,0-3.11-.75,2,2,0,0,0,.65-1.15,5.44,5.44,0,0,0,.17-.78s5.62,1,5.86,1.19C436.09,72.76,436,73.08,435.85,73.45Z" transform="translate(-13.81 -22.8)"/><path class="cls-11" d="M445.86,56.08l-6.81,3.71-.68.37V58.35l.47-.21,5.75-2.47s.27-4.5,1-3.8S445.86,56.08,445.86,56.08Z" transform="translate(-13.81 -22.8)"/><path class="cls-6" d="M439.05,59.79l-.68.37V58.35l.47-.21A11.45,11.45,0,0,0,439.05,59.79Z" transform="translate(-13.81 -22.8)"/><path class="cls-13" d="M433.8,60.45l4.89-2.55s.09,2.47.64,2.84a5.73,5.73,0,0,0-2.79,1.69Z" transform="translate(-13.81 -22.8)"/><path class="cls-6" d="M433.8,60.45l4.89-2.55s.09,2.47.64,2.84a5.73,5.73,0,0,0-2.79,1.69Z" transform="translate(-13.81 -22.8)"/><path class="cls-11" d="M445.82,62.63A31.36,31.36,0,0,1,442,63.88a3.23,3.23,0,0,1-1.07.11c-1.06-.16.27-1.35.27-1.35l.55-.08,3-.42s.32-4.12.87-3.79S445.82,62.63,445.82,62.63Z" transform="translate(-13.81 -22.8)"/><path class="cls-11" d="M436,58.92s-2,1.32-1.23,3-3.79-1-3.79-1a11.92,11.92,0,0,0,1.78-3.46C433.07,56,436,58.92,436,58.92Z" transform="translate(-13.81 -22.8)"/><path class="cls-6" d="M435.85,73.45a11.27,11.27,0,0,0-2.64-.55,16.05,16.05,0,0,1-3.24-.62,7.31,7.31,0,0,0,.18-.78s5.62,1,5.85,1.19S436,73.08,435.85,73.45Z" transform="translate(-13.81 -22.8)"/><path class="cls-6" d="M442,63.88a3.17,3.17,0,0,1-1.07.11c-1.05-.16.28-1.35.28-1.35l.55-.08A1.33,1.33,0,0,1,442,63.88Z" transform="translate(-13.81 -22.8)"/><path class="cls-13" d="M432.8,59.66s-1.79,0-2.43.62-.5,2.44-.5,2.44-.13,3.56.87,5.55a.26.26,0,0,1,0,.21s0,0,0,0-.64,2.59-1.28,3.05,1.37,1,3.75,1.23a8.19,8.19,0,0,1,3.34.87,2,2,0,0,0,.45-1.32c0-.91-.64-7.54-.64-7.54a7.79,7.79,0,0,0,4-.13s.68.33,1.32-.57-.45-1.9-.45-1.9-1,.91-3.79-.29S433.66,59.62,432.8,59.66Z" transform="translate(-13.81 -22.8)"/><path class="cls-10" d="M419.13,83.66h-.55v.7l.55,1.11.78.12.64-.12.18-.29S418.72,84.48,419.13,83.66Z" transform="translate(-13.81 -22.8)"/><path class="cls-13" d="M436.31,84.31,435.49,86,439,87.45l2.74.09s.23-.58-.69-.87l-.73-.12a9.26,9.26,0,0,1-1.05-2.3s-.91.16-1.05.78A1.44,1.44,0,0,1,436.31,84.31Z" transform="translate(-13.81 -22.8)"/><path class="cls-13" d="M418.72,83.49l-.28.21-1.23.9L420.05,88s1.59.62,2.33,0c0,0,.45-.41-.55-.74,0,0-.78.12-.78-.58a2.31,2.31,0,0,1,.45-1.61s-.68-.2-.87,0a2.54,2.54,0,0,0-.36.45S418.63,84.89,418.72,83.49Z" transform="translate(-13.81 -22.8)"/><path class="cls-6" d="M432.66,57.52a6.32,6.32,0,0,1-.18.62,2.47,2.47,0,0,0,3,1.18l.38-.32S433,56,432.66,57.52Z" transform="translate(-13.81 -22.8)"/><path class="cls-6" d="M432.41,63a5.15,5.15,0,0,0,3.47,1.73" transform="translate(-13.81 -22.8)"/><g class="cls-14"><path d="M440.88,64.68l-.09,0-.13.06A.83.83,0,0,0,440.88,64.68Z" transform="translate(-13.81 -22.8)"/><path d="M441.36,62.35l-.16-.17a1.84,1.84,0,0,1-1,.33A2.86,2.86,0,0,0,441.36,62.35Z" transform="translate(-13.81 -22.8)"/><path d="M436.77,64.78v.08a10.19,10.19,0,0,0,1.83.14A11.28,11.28,0,0,1,436.77,64.78Z" transform="translate(-13.81 -22.8)"/><path d="M433.62,72.78c-2.38-.25-4.39-.79-3.75-1.24s1.27-3.05,1.27-3.05,0,0,0,0a.22.22,0,0,0,0-.21c-1-2-.86-5.55-.86-5.55s-.14-1.77.5-2.43a3.49,3.49,0,0,1,2.12-.62h-.15s-1.78,0-2.42.62-.5,2.44-.5,2.44-.14,3.56.86,5.55a.2.2,0,0,1,0,.2s0,0,0,0-.63,2.59-1.28,3.05,1.37,1,3.76,1.23a8.17,8.17,0,0,1,3.33.87,1.09,1.09,0,0,0,.13-.17A10.29,10.29,0,0,0,433.62,72.78Z" transform="translate(-13.81 -22.8)"/></g><ellipse class="cls-11" cx="420.95" cy="34.43" rx="2.38" ry="2.14"/><path class="cls-6" d="M438.14,56.27c-.19.45-.78.62-1.3.73a4.13,4.13,0,0,1-2.23.07.6.6,0,0,0-.3,0,.43.43,0,0,0-.2.15c-.77,1-.65,2.33-.85,3.53a1.85,1.85,0,0,1-.45,1c-.54.54-1.58.52-2.08,1.09a2,2,0,0,0-.33,1.39c0,.52,0,1,0,1.55a2,2,0,0,1-.19,1,2.61,2.61,0,0,1-1.53,1,2.81,2.81,0,0,1-1.14.21.88.88,0,0,1-.85-.62c-.07-.49.49-.83.87-1.18a2.94,2.94,0,0,0,.88-2.14,2.16,2.16,0,0,0-.15-.94c-.14-.3-.39-.56-.54-.86-.46-.94.11-2,.79-2.84a5.71,5.71,0,0,0,1.67-2.63,3.65,3.65,0,0,1,.1-.65,3.74,3.74,0,0,1,.63-1.3,3.59,3.59,0,0,1,1.5-.56c.43-.05.86,0,1.28-.11s.94-.29,1.43-.37c1.06-.17,2.21.94,2.67,1.81C437.93,55.81,438.26,56,438.14,56.27Z" transform="translate(-13.81 -22.8)"/><path class="cls-15" d="M438.14,56.19c-.19.45-.78.61-1.3.73a4.13,4.13,0,0,1-2.23.07.44.44,0,0,0-.3-.05.43.43,0,0,0-.2.15c-.77,1-.65,2.33-.85,3.53a1.82,1.82,0,0,1-.45,1c-.54.55-1.58.53-2.08,1.1a2,2,0,0,0-.33,1.39c0,.52,0,1,0,1.55a2,2,0,0,1-.19,1,2.61,2.61,0,0,1-1.53,1,2.81,2.81,0,0,1-1.14.21.87.87,0,0,1-.85-.63c-.07-.48.49-.82.87-1.17a3,3,0,0,0,.88-2.15,2.14,2.14,0,0,0-.15-.93c-.14-.31-.39-.56-.54-.87-.46-.93.11-2,.79-2.83a5.81,5.81,0,0,0,1.67-2.63,3.52,3.52,0,0,1,.1-.65,3.66,3.66,0,0,1,.63-1.3,3.46,3.46,0,0,1,1.5-.56c.43-.06.86,0,1.28-.11s.94-.29,1.43-.37c1.06-.17,2.21.94,2.67,1.81C437.93,55.73,438.26,55.92,438.14,56.19Z" transform="translate(-13.81 -22.8)"/><path class="cls-16" d="M445.82,52.07h39.51V87.7H445.82Z" transform="translate(-13.81 -22.8)"/><path d="M456.21,81.85l3-1.65c.59.93,1.12,1.72,2.39,1.72s2-.43,2-2.1V68.43h3.71V79.86c0,3.47-2.25,5-5.54,5a5.85,5.85,0,0,1-5.57-3.06m13.13-.36,3-1.58a4.11,4.11,0,0,0,3.66,2c1.54,0,2.52-.69,2.52-1.65,0-1.15-1-1.56-2.7-2.23l-.93-.35c-2.68-1-4.46-2.32-4.46-5,0-2.51,2.13-4.43,5.44-4.43a5.65,5.65,0,0,1,5.28,2.68l-2.89,1.68a2.56,2.56,0,0,0-2.39-1.44c-1.09,0-1.78.62-1.78,1.44,0,1,.69,1.41,2.28,2l.93.36c3.15,1.22,4.93,2.46,4.93,5.26,0,3-2.62,4.66-6.15,4.66s-5.68-1.49-6.76-3.42" transform="translate(-13.81 -22.8)"/><path class="cls-17" d="M502.66,107.48a3,3,0,0,1-2.5-1.4,4.72,4.72,0,0,0-.65-.84,2.56,2.56,0,0,1-.46-1.51c.05-1.1-1.23-7.14-1.23-7.14a5.79,5.79,0,0,0-1.11-3.75,26.15,26.15,0,0,1-2.78-5.4.38.38,0,0,0,.17.08l0-.15h0l-.38-1.87a8.62,8.62,0,0,1-1.37-1.88h.08l1.13-.22s1.84-2.35,1.95-3.5h.37a48,48,0,0,1,5.08.24h0l0-.09h0a5.62,5.62,0,0,1-.16-.71h.1l1.05-.06s3.62-3.64,2.29-4.32-2.71,3-2.71,3l-.45.07-.12,0,0,0s-5.9-.23-6.81-1.53c0,0-2.61-1.87-2.71-3.12a1.42,1.42,0,0,0-.94-1.19,2.27,2.27,0,0,0-1-.18l-1.23.08.09.13h0a2.86,2.86,0,0,1-.2-.48h0l0-.11a2.59,2.59,0,0,0,2.14-3.11s0-.05,0-.08a1.09,1.09,0,0,0,.36,0,1,1,0,0,0,.78-.9v-.1a1.37,1.37,0,0,0-.59-1.07,8.38,8.38,0,0,1-.76-.51,5.81,5.81,0,0,1-.61-.86A2.84,2.84,0,0,0,488,64a1.45,1.45,0,0,0-1.32.14c-.17.15-.27.36-.47.48a2.2,2.2,0,0,1-1,.17,1.92,1.92,0,0,0-1.45,1,2,2,0,0,0-.23,1,2.23,2.23,0,0,0,.09.72c.07.24.17.46.24.7.15.49.18,1,.35,1.48a1.88,1.88,0,0,0,.67.91l0,.2a2.23,2.23,0,0,0-1.43,1.29,7.46,7.46,0,0,1-2.66,2.18,1,1,0,0,0-.5.63,2.69,2.69,0,0,0-.09.8,5,5,0,0,0,.64,2.39,19,19,0,0,0,2,3.31s.06.71.07,1.45a3.9,3.9,0,0,1-.18,1.38,4.57,4.57,0,0,0-.14,1.51c0,1.3.14,3,.14,3s.41.07,1,.15l.39,6.22a2.83,2.83,0,0,1-.75,2.08,5,5,0,0,1-.95.81c-1.11.72-3.51,8.3-3.51,8.3l.31,0-.73,1.85s2.94,2,4.73,1.48a1.71,1.71,0,0,1,.6-.08c.35,0,1.1-.25.68-.58a29.22,29.22,0,0,1-2.29-2.15l.17.08h0a1.29,1.29,0,0,1,0-.19h0c.05-.5.22-1.76.56-1.91s3.56-5.8,3.56-5.8l3.14-7.29s2.5,3.88,4.63,4.55v1.63a40.3,40.3,0,0,0,1.59,5.32c.43.53,0,2.64,0,2.64a1.63,1.63,0,0,0,.29.23l-.34,1.74a23.74,23.74,0,0,1,6.59,1S504,108.24,502.66,107.48Zm-9.79-25.09-.52.12-.1,0a.66.66,0,0,0,0-.09,1.43,1.43,0,0,1-.37.08,5.68,5.68,0,0,1-.32-1.62,9.79,9.79,0,0,1-.31-2,1.31,1.31,0,0,1,.21-.83h.17l.12.11h0l.06,0h0l.06.05h0l.07.06h0l.07,0h0l.08.06h0l.09.07h0l.08.06h0l.09.06h0l.09.06h0l.1.06,0,0,.1.06h0l.1.07h0l.11.06,0,0,.1.05,0,0,.12.06h0l.12.06h0l.12.06h0l.13.06h0l.11,0h0l.13,0h0l.14,0h0A7.15,7.15,0,0,0,492.87,82.39Z" transform="translate(-13.81 -22.8)"/><path class="cls-18" d="M479.76,105.16l-1,2.48s2.7,1.87,4.46,1.48a5.32,5.32,0,0,1,.8-.12c.37,0,1-.26.6-.56a32.74,32.74,0,0,1-2.9-2.81Z" transform="translate(-13.81 -22.8)"/><path class="cls-18" d="M496.16,104.92l-.47,2.39a23.53,23.53,0,0,1,6.44,1s1.56-.61.26-1.35a2.89,2.89,0,0,1-2.44-1.35c-.93-1.45-1.5-1.27-1.5-1.27Z" transform="translate(-13.81 -22.8)"/><path class="cls-19" d="M483.8,87.6l.45,7.27a2.81,2.81,0,0,1-.79,2.12,4.57,4.57,0,0,1-.86.72c-1.09.71-3.43,8.11-3.43,8.11a11.43,11.43,0,0,1,3.38.6s.15-1.87.57-2.06,3.48-5.66,3.48-5.66l3.06-7.12s2.44,3.79,4.52,4.45v1.59a38.62,38.62,0,0,0,1.56,5.2c.41.51,0,2.57,0,2.57s1.2,1.36,3.94-.09a3,3,0,0,1-.83-2c0-1.08-1.2-7-1.2-7a5.65,5.65,0,0,0-1.09-3.65c-1.24-1.41-3.3-6.79-3.3-6.79l-1.43-2.77Z" transform="translate(-13.81 -22.8)"/><g class="cls-14"><path d="M479.68,105.81s2.33-7.39,3.42-8.1a4.82,4.82,0,0,0,.91-.77,2.79,2.79,0,0,0,.75-2.07l-.46-7.27L492,83.34l-.1-.2-8,4.46.46,7.27a2.79,2.79,0,0,1-.75,2.07,4.76,4.76,0,0,1-.9.77c-1.09.71-3.43,8.1-3.43,8.1a11.52,11.52,0,0,1,3.38.61s0-.07,0-.19A16.7,16.7,0,0,0,479.68,105.81Z" transform="translate(-13.81 -22.8)"/><path d="M496.24,105.39s.42-2.06,0-2.57a38.19,38.19,0,0,1-1.56-5.2V96c-2.07-.66-4.52-4.45-4.52-4.45L490,92c.71,1,2.59,3.51,4.24,4v1.59a39.46,39.46,0,0,0,1.55,5.2c.42.51,0,2.57,0,2.57a2.28,2.28,0,0,0,1.86.57A2.11,2.11,0,0,1,496.24,105.39Z" transform="translate(-13.81 -22.8)"/></g><path class="cls-20" d="M501.67,79.45l-1,.06-.54,0V78.37l.7-.11.44-.08s1.35-3.6,2.65-3S501.67,79.45,501.67,79.45Z" transform="translate(-13.81 -22.8)"/><path class="cls-20" d="M485.31,69.8a37.68,37.68,0,0,0-.88,3.79c-.21,1.45,4.83.28,4.83.28s-1.93-2.11-.83-3.23Z" transform="translate(-13.81 -22.8)"/><path class="cls-10" d="M490.76,79.55l.11.89-1.61-.1-1.61-1.26L486,75l-1-1.45-.78-.89.32-1.08s.14.11.38.27c.79.54,2.64,1.68,4,1.37l.18,0,2,3.13Z" transform="translate(-13.81 -22.8)"/><path class="cls-6" d="M485,71.3a2.18,2.18,0,0,0-1.4,1.27A7.19,7.19,0,0,1,481,74.69a1,1,0,0,0-.5.63,4.26,4.26,0,0,0,.54,3,18.14,18.14,0,0,0,2,3.23,9.54,9.54,0,0,1-.1,2.9c-.31.66,0,4.26,0,4.26s5.45.94,7.27,0,1.56-4.54,1.56-4.54,1.71,3.28,2.33,3.37l-.36-1.82a7.54,7.54,0,0,1-2.13-4.5s-.62-2.3-.1-2.9c0,0,8.77.65,9.29.09,0,0-5.76-.23-6.64-1.5,0,0-2.55-1.83-2.65-3a1.36,1.36,0,0,0-.78-1.11,2.2,2.2,0,0,0-1.16-.23l-1.18.07s2,3.23,1.92,3.66.11,3.84.11,3.84S488,75.52,487,75a8.33,8.33,0,0,1-2.23-2.63L485,71.3" transform="translate(-13.81 -22.8)"/><path class="cls-6" d="M490.76,79.55l.11.89-1.61-.1-1.61-1.26L486,75l-1-1.45-.78-.89.32-1.08s.14.11.38.27l-.07.37a8.33,8.33,0,0,0,2.23,2.63c1,.52,3.37,5.06,3.37,5.06s-.2-3.42-.1-3.84a11.94,11.94,0,0,0-1.43-2.85l.18,0,2,3.13Z" transform="translate(-13.81 -22.8)"/><path class="cls-6" d="M500.65,79.51l-.54,0V78.37l.7-.11A1.68,1.68,0,0,0,500.65,79.51Z" transform="translate(-13.81 -22.8)"/><path class="cls-19" d="M485,71.16a2.18,2.18,0,0,0-1.4,1.27A7.19,7.19,0,0,1,481,74.55a1,1,0,0,0-.5.63,4.26,4.26,0,0,0,.54,3,18.14,18.14,0,0,0,2,3.23,9.54,9.54,0,0,1-.1,2.9c-.31.66,0,4.26,0,4.26s5.45.94,7.27,0S491.7,84,491.7,84s1.71,3.27,2.33,3.37l-.36-1.82a7.54,7.54,0,0,1-2.13-4.5s-.62-2.29-.1-2.9a7,7,0,0,0,4.31,1.92,48.68,48.68,0,0,1,5,.23s-.52-1.5,0-2.06c0,0-5.76-.23-6.64-1.5,0,0-2.55-1.82-2.65-3a1.33,1.33,0,0,0-.78-1.1,2.12,2.12,0,0,0-1.16-.24l-1.18.07s2,3.24,1.92,3.66.11,3.84.11,3.84S488,75.38,487,74.86a8.33,8.33,0,0,1-2.23-2.63l.21-1.07" transform="translate(-13.81 -22.8)"/><path class="cls-6" d="M483.8,76.08s1.25,3.79,2,4.26,5.14,2.86,6.44,2.29c0,0,.31,1.41-.15,1.74,0,0-4.84-.17-4.88-.19s-3.17-.37-3.69-1.78-1.14-3.79-1.14-3.79Z" transform="translate(-13.81 -22.8)"/><ellipse class="cls-21" cx="476.64" cy="57.33" rx="0.18" ry="0.23"/><ellipse class="cls-21" cx="477.15" cy="58.97" rx="0.18" ry="0.23"/><g class="cls-14"><path d="M483.24,88.48s-.32-3.6,0-4.26a9.54,9.54,0,0,0,.1-2.9,18.67,18.67,0,0,1-2-3.23,4.28,4.28,0,0,1-.55-3,1,1,0,0,1,.51-.63,7.19,7.19,0,0,0,2.58-2.13,2.53,2.53,0,0,1,1-1.11l0-.1a2.14,2.14,0,0,0-1.4,1.26A7.09,7.09,0,0,1,481,74.54a1,1,0,0,0-.5.63,4.25,4.25,0,0,0,.54,3,18.57,18.57,0,0,0,2,3.24,9.54,9.54,0,0,1-.1,2.9c-.31.65,0,4.26,0,4.26a25.08,25.08,0,0,0,6.2.31A26.47,26.47,0,0,1,483.24,88.48Z" transform="translate(-13.81 -22.8)"/><path d="M490.24,76.08a25.53,25.53,0,0,0,.06,3l.41.77s-.21-3.42-.1-3.84-1.73-3.34-1.91-3.63l-.38,0S490.35,75.66,490.24,76.08Z" transform="translate(-13.81 -22.8)"/><path d="M496.11,80a7,7,0,0,1-4.31-1.92.85.85,0,0,0-.13.25,6.67,6.67,0,0,0,4.08,1.72,48.68,48.68,0,0,1,5,.23l0-.08C499.18,80.07,497.64,80,496.11,80Z" transform="translate(-13.81 -22.8)"/><path d="M492.06,83.94s0,.3,0,.74c.54,1,1.52,2.62,2,2.68L494,87A22.09,22.09,0,0,1,492.06,83.94Z" transform="translate(-13.81 -22.8)"/></g><path class="cls-20" d="M493.51,83.47l-1.1.21-.87.17.47-1.17.32-.08.51-.11s.72-3.28,2.18-3S493.51,83.47,493.51,83.47Z" transform="translate(-13.81 -22.8)"/><path class="cls-6" d="M492.41,83.69l-.87.16.47-1.17.32-.07A3.88,3.88,0,0,1,492.41,83.69Z" transform="translate(-13.81 -22.8)"/><path class="cls-19" d="M483.8,76s1.25,3.8,2,4.27,5.14,2.85,6.44,2.29c0,0,.31,1.41-.15,1.73l-4.88-.18s-3.17-.38-3.69-1.78-1.14-3.79-1.14-3.79Z" transform="translate(-13.81 -22.8)"/><path class="cls-6" d="M485.36,69.9s-.1.36-.24.9a2.91,2.91,0,0,0,3.09,1.28,1.34,1.34,0,0,1,.27-1.34Z" transform="translate(-13.81 -22.8)"/><ellipse class="cls-20" cx="473.73" cy="46.72" rx="2.8" ry="2.53"/><path class="cls-6" d="M490,68.83a1.61,1.61,0,0,0,.62,0,.94.94,0,0,0,.76-.88,1.32,1.32,0,0,0-.58-1c-.23-.18-.52-.3-.73-.5a4.87,4.87,0,0,1-.6-.83,2.76,2.76,0,0,0-1.41-1,1.39,1.39,0,0,0-1.29.13c-.17.15-.27.36-.46.48a2.22,2.22,0,0,1-1,.16,1.86,1.86,0,0,0-1.41,1,2.22,2.22,0,0,0-.14,1.62c.07.23.16.45.23.68.15.48.18,1,.35,1.45a1.63,1.63,0,0,0,1,1.07,2.73,2.73,0,0,1,.34-1.53.42.42,0,0,1,.23-.24.71.71,0,0,1,.29,0,3.11,3.11,0,0,0,1.9-.35c.2-.11.51-.48.72-.52S489.69,68.77,490,68.83Z" transform="translate(-13.81 -22.8)"/><path class="cls-22" d="M490,68.73a1.61,1.61,0,0,0,.62,0,.94.94,0,0,0,.76-.89,1.3,1.3,0,0,0-.58-1c-.23-.18-.52-.31-.73-.5a4.94,4.94,0,0,1-.6-.84,2.69,2.69,0,0,0-1.41-1,1.39,1.39,0,0,0-1.29.13,5.22,5.22,0,0,1-.46.48,2.38,2.38,0,0,1-1,.16,1.88,1.88,0,0,0-1.41.94,2.25,2.25,0,0,0-.14,1.63c.07.23.16.45.23.68.15.47.18,1,.35,1.44a1.63,1.63,0,0,0,1,1.07,2.72,2.72,0,0,1,.34-1.52.43.43,0,0,1,.24-.24.66.66,0,0,1,.28,0,3.11,3.11,0,0,0,1.9-.35c.2-.11.51-.48.72-.52S489.69,68.68,490,68.73Z" transform="translate(-13.81 -22.8)"/><path class="cls-23" d="M518,60.38,515.67,83.5l-10.29,2.57L495.13,83.5l-2.29-23.12Z" transform="translate(-13.81 -22.8)"/><path class="cls-24" d="M505.4,84.1,513.71,82l1.95-19.76H505.4Z" transform="translate(-13.81 -22.8)"/><path class="cls-25" d="M501,68h4.45V65.11h-7.88l.07.76.77,7.81h7V70.85h-4.16Zm.72,7.15h-3.16l.44,4.45,6.43,1.62h0v-3h0l-3.51-.85Z" transform="translate(-13.81 -22.8)"/><path d="M495.18,54.1h1.6v1.42h1.46V54.1h1.6v4.31h-1.6V57h-1.46v1.44h-1.6Zm6.76,1.43h-1.41V54.1h4.41v1.43h-1.41v2.88h-1.59V55.53Zm3.7-1.43h1.67l1,1.52,1-1.52H511v4.31h-1.59V56.28l-1.1,1.53h0l-1.1-1.53v2.13h-1.56Zm6.18,0h1.59V57h2.26v1.42h-3.85V54.1Z" transform="translate(-13.81 -22.8)"/><path class="cls-1" d="M505.39,73.68h3.87l-.37,3.68-3.5.85v3l6.44-1.61.05-.48.74-7.46.07-.77h-7.3v2.84Zm0-5.74H513l.06-.64.15-1.44.08-.76h-7.88v2.83Z" transform="translate(-13.81 -22.8)"/><path class="cls-26" d="M425.81,77.45a5.62,5.62,0,0,0-1.05-2l-.06,0h-.05v-1l-.79.12a6.63,6.63,0,0,1-.28-1.06.6.6,0,0,0,.59.11l0-.06,0,0a1.26,1.26,0,0,1-.19-.65,2.18,2.18,0,0,1,.11-.61c.14-.44.38-.85.51-1.29a2.64,2.64,0,0,0,.12-.88,2.84,2.84,0,0,0-.37-1.44.86.86,0,0,0-.27-.33l-.35-.15a1.88,1.88,0,0,1-.49-.44,4.52,4.52,0,0,0-2.16-1.3,1.35,1.35,0,0,0-.69,0c-.53.13-.72.72-1.15,1a3.46,3.46,0,0,1-1.38.39,2.47,2.47,0,0,0-1.28.61,1.17,1.17,0,0,0-.34.84.8.8,0,0,0,.38.74,1.25,1.25,0,0,0,1,.13A3.05,3.05,0,0,0,420,74a1.14,1.14,0,0,0,.25.06l.1.15h0A6.65,6.65,0,0,1,421,75.7a6.6,6.6,0,0,1-2,.76,3.22,3.22,0,0,1-.11.5,2.53,2.53,0,0,1-.63,1.11c-.65.66-3.58,5.66-3.58,5.66l-.24.54a35.89,35.89,0,0,1-5.62.34l-3.26-2.79s-1.05.73-1,1.61l-.59-.51s-3.09,2.13,1.79,3.52l7.44.78c-.71,1.93-1.37,4.17-1.16,5.39h.06a3,3,0,0,0,.42,0v.22l-.72,11.57a3.23,3.23,0,0,0,2,3.08s2.69,7.13,1.63,7.94l.33.14-2.21,1.76a11.5,11.5,0,0,1-2.52.3.65.65,0,0,0-.72.43.09.09,0,0,1,0,0v.14a.09.09,0,0,0,0,.05v0a.08.08,0,0,1,0,0h0l0,0h0l0,0h0a.12.12,0,0,0,.05.05v0l0,0h0l.06,0h0l.08,0h0l.08,0h0l.1,0h0l.11,0h0l.12,0h0l.12,0h0l.15,0h0l.15,0h.21c.33,0,.78,0,1.3,0h0v.08a.11.11,0,0,0,0,0h0a.17.17,0,0,1,0,0v0l0,0h0l0,0h0a.12.12,0,0,0,.05,0v0l.05.05h0l.06,0h0l.08,0h0l.09,0h0l.09,0h0l.1,0h0l.11,0h0l.13,0h0l.15,0h0l.15,0h0l.17,0c2.12.15,8.88-.29,8.88-.29v0h0v0h0a3.57,3.57,0,0,0-.76-3.16l.1-.11s-.9-1.39-.41-1.83-2.38-8-2.38-8a5.59,5.59,0,0,1-.66-4.71,8.64,8.64,0,0,0-.08-5.21,3.08,3.08,0,0,0,2.18-3v-.22h.23a3.52,3.52,0,0,1,.08-2.28c.49-1,1.55-.07,2.52-4,.71-2.81,1.33-6,1.62-7.63A3.62,3.62,0,0,0,425.81,77.45Zm-18.58,8.26-.75-.64c.25.09.52.18.83.27l2.8.3a15.54,15.54,0,0,1-2.88.07Z" transform="translate(-13.81 -22.8)"/><path class="cls-11" d="M414.32,85.34s-5.77.72-7,.5l-3.2-2.74s-3,2.09,1.76,3.46l9,.94Z" transform="translate(-13.81 -22.8)"/><path class="cls-27" d="M414.32,85.34s-5.77.72-7,.5l-3.2-2.74s-3,2.09,1.76,3.46l9,.94Z" transform="translate(-13.81 -22.8)"/><path class="cls-28" d="M403,87.16,390.59,84,387.81,56H418.3L415.52,84Z" transform="translate(-13.81 -22.8)"/><path class="cls-29" d="M413.15,82.25l2.37-24H403.06v26.5Z" transform="translate(-13.81 -22.8)"/><path class="cls-25" d="M394.18,68.68l.34,3.44h8.54V68.68Zm-.69-7,.35,3.44h9.22V61.71Zm9.57,15.91h0l-4.25-1-.28-2.74h-3.83l.53,5.4,7.82,2h0Z" transform="translate(-13.81 -22.8)"/><path d="M395,48.34h4.62v1.75h-2.69v1.74h2.69v1.75H395Zm5.55,0h4.62v1.52h-2.69v.3h2.69v3.49h-4.62V52.06h2.69v-.3h-2.69V48.34Zm5.56,0h4.62v1.52H408v.3h2.69v3.49h-4.63V52.06h2.69v-.3h-2.69V48.34Z" transform="translate(-13.81 -22.8)"/><path class="cls-1" d="M411.92,68.68l.68-7H403v3.44h5.38l-.35,3.52h-5v3.44h4.7l-.45,4.47-4.25,1V81.2l7.82-2,.06-.58.9-9.06.09-.93Z" transform="translate(-13.81 -22.8)"/><path class="cls-30" d="M416.4,114.64l-2.8,2.24a11.32,11.32,0,0,1-2.48.29c-.88-.08-1.28,1.22.8,1.37s8.72-.29,8.72-.29a3.41,3.41,0,0,0-1.28-3.61Z" transform="translate(-13.81 -22.8)"/><path class="cls-27" d="M416.4,114.64l-2.8,2.24a11.32,11.32,0,0,1-2.48.29c-.88-.08-1.28,1.22.8,1.37s8.72-.29,8.72-.29a3.41,3.41,0,0,0-1.28-3.61Z" transform="translate(-13.81 -22.8)"/><path class="cls-31" d="M420.74,117.25a4.06,4.06,0,0,1-.1.78s-6.64.44-8.72.29c-1-.07-1.43-.4-1.51-.73-.09.38.28.86,1.51,1,2.08.15,8.72-.29,8.72-.29A3.74,3.74,0,0,0,420.74,117.25Z" transform="translate(-13.81 -22.8)"/><path class="cls-11" d="M419.68,73.72s1.76,2.24,1.12,3.76,3.36-1.59,3.36-1.59a5.68,5.68,0,0,1-.64-4.2Z" transform="translate(-13.81 -22.8)"/><path class="cls-30" d="M419.2,115.51l-2.8,2.23a10.71,10.71,0,0,1-2.48.29c-.88-.07-1.28,1.23.8,1.37s8.72-.28,8.72-.28a3.41,3.41,0,0,0-1.28-3.61Z" transform="translate(-13.81 -22.8)"/><path class="cls-12" d="M420,115a2.17,2.17,0,0,1-1.62.67,7.36,7.36,0,0,1-2.94-.67c1-.79-1.6-7.79-1.6-7.79a3.18,3.18,0,0,1-2-3l.7-11.36.18-2.86L415,88.73,416.72,90l1.68,1.16a5.49,5.49,0,0,1,.21,1.13,3.06,3.06,0,0,1-2.13,3.28,8.53,8.53,0,0,1,.08,5.12,5.47,5.47,0,0,0,.64,4.62s2.88,7.51,2.4,7.94S420,115,420,115Z" transform="translate(-13.81 -22.8)"/><path class="cls-27" d="M420,115a2.17,2.17,0,0,1-1.62.67,7.36,7.36,0,0,1-2.94-.67c1-.79-1.6-7.79-1.6-7.79a3.18,3.18,0,0,1-2-3l.7-11.36.18-2.86L415,88.73,416.72,90l1.68,1.16a5.49,5.49,0,0,1,.21,1.13,3.06,3.06,0,0,1-2.13,3.28,8.53,8.53,0,0,1,.08,5.12,5.47,5.47,0,0,0,.64,4.62s2.88,7.51,2.4,7.94S420,115,420,115Z" transform="translate(-13.81 -22.8)"/><path class="cls-12" d="M422.8,115.87c-1.36,1.51-4.56,0-4.56,0a.56.56,0,0,0,.14-.2c.58-1.44-2-8.32-2-8.32a4.19,4.19,0,0,1-2.41-3.17l-.56-11.57-.07-1.5L416.72,90l1-.35L421.2,92a5.16,5.16,0,0,1,.22,1.51,3.05,3.05,0,0,1-2.14,2.9,8.53,8.53,0,0,1,.08,5.12,5.43,5.43,0,0,0,.64,4.61s2.88,7.51,2.4,7.94S422.8,115.87,422.8,115.87Z" transform="translate(-13.81 -22.8)"/><path class="cls-6" d="M421.42,93.49a11.29,11.29,0,0,1-2.81-1.25c-.28-.15-.45-.26-.45-.26s-.72-1.8-2.64-.43a7.23,7.23,0,0,1-2.09,1.06,5.48,5.48,0,0,1-.89.21l.18-2.86L415,88.74,416.72,90l1-.35L421.2,92A5.16,5.16,0,0,1,421.42,93.49Z" transform="translate(-13.81 -22.8)"/><path class="cls-32" d="M425.75,79.64c-.29,1.55-.9,4.74-1.59,7.5-1,3.83-2,3-2.48,3.9a3.47,3.47,0,0,0-.08,2.24c-.8.07-3.44-1.52-3.44-1.52s-.72-1.8-2.64-.43a6,6,0,0,1-3.44,1.3c-.4-2.39,2.56-8.74,2.56-8.74s2.88-4.91,3.52-5.55a2.84,2.84,0,0,0,.72-1.59c1-.07,3.6-1.66,3.6-1.66l2-.28v.93l.07,0a5.49,5.49,0,0,1,1,2A3.55,3.55,0,0,1,425.75,79.64Z" transform="translate(-13.81 -22.8)"/><path class="cls-11" d="M416.4,86.42l-1-.11-7.92-.83c-4.81-1.37-1.76-3.46-1.76-3.46l3.2,2.74a40.37,40.37,0,0,0,6.16-.41l.8-.09Z" transform="translate(-13.81 -22.8)"/><path class="cls-6" d="M424.16,76.68s-2.08-1.52-5.21,3.39-3.84,4.11-3.84,4.11.64,2.17.32,2.6a20,20,0,0,1,3,0c.8.15,5.76-5.48,5.76-5.48S426.72,78.12,424.16,76.68Z" transform="translate(-13.81 -22.8)"/><path class="cls-6" d="M424.08,76.39s-2.08-1.52-5.2,3.39S415,83.89,415,83.89s2.47,2.46,3.28,2.6S424.08,81,424.08,81,426.64,77.83,424.08,76.39Z" transform="translate(-13.81 -22.8)"/><path class="cls-6" d="M415.36,86.32a7.58,7.58,0,0,0-.32-2l.8-.09.56,2.17Z" transform="translate(-13.81 -22.8)"/><path class="cls-32" d="M424.16,76.53S422.08,75,419,79.92,415.11,84,415.11,84s.64,2.16.32,2.6a18.7,18.7,0,0,1,3,0c.8.14,5.76-5.49,5.76-5.49S426.72,78,424.16,76.53Z" transform="translate(-13.81 -22.8)"/><path class="cls-6" d="M423.6,71.84l-3.84,2a7.66,7.66,0,0,1,.45.66,3.71,3.71,0,0,0,.67.06c1,0,1.5-1,2.12-1.62C423,72.44,423.43,72.42,423.6,71.84Z" transform="translate(-13.81 -22.8)"/><ellipse class="cls-11" cx="406.98" cy="48.61" rx="3.36" ry="3.03"/><path class="cls-6" d="M416.55,69a2.32,2.32,0,0,1,1.26-.6,3.41,3.41,0,0,0,1.35-.39c.42-.3.61-.88,1.13-1A1.31,1.31,0,0,1,421,67a4.47,4.47,0,0,1,2.12,1.27,1.48,1.48,0,0,0,.49.44l.33.15a.91.91,0,0,1,.27.32,2.85,2.85,0,0,1,.25,2.21c-.13.43-.37.84-.51,1.27A1.54,1.54,0,0,0,424,74a.63.63,0,0,1-.71-.24A2.39,2.39,0,0,1,423,73a2.68,2.68,0,0,0-.87-1.22c-.25-.2-.7-.33-.88-.08s-.06.23-.12.34a.53.53,0,0,1-.66.13,1,1,0,0,1-.42-.55c-.33-1-.89-1.64-2.08-1.21a1.6,1.6,0,0,1-1.4,0A1,1,0,0,1,416.55,69Z" transform="translate(-13.81 -22.8)"/><path class="cls-33" d="M416.55,68.88a2.38,2.38,0,0,1,1.26-.59,3.41,3.41,0,0,0,1.35-.39c.42-.31.61-.88,1.13-1a1.31,1.31,0,0,1,.68,0,4.48,4.48,0,0,1,2.12,1.28,1.74,1.74,0,0,0,.49.44,2.41,2.41,0,0,1,.33.15.76.76,0,0,1,.27.32,2.83,2.83,0,0,1,.25,2.2c-.13.44-.37.84-.51,1.28a1.54,1.54,0,0,0,.08,1.31.63.63,0,0,1-.71-.24A2.5,2.5,0,0,1,423,73a2.68,2.68,0,0,0-.87-1.22c-.25-.2-.7-.34-.88-.08-.06.1-.06.23-.12.33a.52.52,0,0,1-.66.14.94.94,0,0,1-.42-.56c-.33-1-.89-1.63-2.08-1.21a1.57,1.57,0,0,1-1.4,0A1,1,0,0,1,416.55,68.88Z" transform="translate(-13.81 -22.8)"/><path class="cls-27" d="M424.54,75.77h-1.62s-3.2,1.45-3.28,1.38a2.94,2.94,0,0,0-.87.09,2.68,2.68,0,0,0,.11-.49c1-.07,3.6-1.66,3.6-1.66l2-.29v.94Z" transform="translate(-13.81 -22.8)"/><path class="cls-31" d="M423.54,118.12a4.17,4.17,0,0,1-.1.78s-6.64.43-8.72.29c-1-.07-1.43-.41-1.51-.73-.09.37.28.86,1.51,1,2.08.14,8.72-.29,8.72-.29A3.78,3.78,0,0,0,423.54,118.12Z" transform="translate(-13.81 -22.8)"/><g class="cls-34"><path d="M414.76,91.26a7.08,7.08,0,0,1-2.67,1.21.76.76,0,0,0,0,.16,6,6,0,0,0,3.44-1.3,2.67,2.67,0,0,1,1-.48A1.8,1.8,0,0,0,414.76,91.26Z" transform="translate(-13.81 -22.8)"/><path d="M425.62,77.72a5.64,5.64,0,0,0-1-2l-.06,0s-.66,0-.64,0a5.31,5.31,0,0,1,.94,1.88,3.59,3.59,0,0,1,.17,1.92c-.29,1.55-.9,4.74-1.59,7.5-1,3.82-2,3-2.48,3.89a3.23,3.23,0,0,0-.11,2.12,2,2,0,0,0,.83.19,3.44,3.44,0,0,1,.08-2.23c.48-.94,1.52-.07,2.48-3.9.69-2.77,1.3-6,1.59-7.5A3.6,3.6,0,0,0,425.62,77.72Z" transform="translate(-13.81 -22.8)"/></g><path class="cls-4" d="M434.92,91.21a1.65,1.65,0,0,0,.57-.79.66.66,0,0,0-.4-.79A1.21,1.21,0,0,0,434,90a1.43,1.43,0,0,1-1,.45,1.35,1.35,0,0,0,.49-1.33.59.59,0,0,0-.14-.27c-.2-.2-.57-.11-.82,0a2.61,2.61,0,0,0-1,2.31,3.78,3.78,0,0,1,0-1,.94.94,0,0,0-.39-.84,1.29,1.29,0,0,0-.61-.13,1.36,1.36,0,0,0-1,.25.81.81,0,0,0,0,1.09,3.85,3.85,0,0,0,1,.73,2.18,2.18,0,0,1,.72.62s0,.08.06.11h2.2A6.31,6.31,0,0,0,434.92,91.21Z" transform="translate(-13.81 -22.8)"/><path class="cls-4" d="M439,116.63a2.21,2.21,0,0,0,.79-1.06.91.91,0,0,0-.55-1.08,1.59,1.59,0,0,0-1.44.45,2,2,0,0,1-1.4.61,1.84,1.84,0,0,0,.66-1.8.82.82,0,0,0-.19-.37c-.27-.27-.78-.15-1.11.06a3.61,3.61,0,0,0-1.36,3.14,6.17,6.17,0,0,1,0-1.29,1.28,1.28,0,0,0-.53-1.15,2.46,2.46,0,0,0-2.15.17,1.09,1.09,0,0,0,.05,1.47,5.15,5.15,0,0,0,1.37,1,2.91,2.91,0,0,1,1,.85.52.52,0,0,1,.07.15h3A8.26,8.26,0,0,0,439,116.63Z" transform="translate(-13.81 -22.8)"/><ellipse class="cls-1" cx="113.62" cy="101" rx="99.93" ry="63.69" transform="matrix(1, -0.06, 0.06, 1, -19.96, -15.43)"/><path class="cls-35" d="M153.11,92.87l-.4-6.37-5.26-.71a20.27,20.27,0,0,0-1.54-3.68l3.31-3.94-4.3-4.91-4.72,2.35a20.86,20.86,0,0,0-3.53-2.11l.23-5-6.55-1.56L128,71.42c-.69,0-1.38,0-2.08,0a19.32,19.32,0,0,0-2.09.24l-3-4.16-6.29,2.38.87,4.94a21.67,21.67,0,0,0-3.24,2.53l-5-1.72-3.64,5.41,3.8,3.49a19.43,19.43,0,0,0-1.07,3.85l-5.11,1.38.4,6.36,5.26.72a18.23,18.23,0,0,0,1.53,3.67l-3.31,4,4.3,4.89,4.73-2.33a22.21,22.21,0,0,0,3.53,2.1l-.22,5,6.54,1.56,2.38-4.5q1,0,2.1,0c.7,0,1.4-.13,2.09-.24l2.94,4.15,6.29-2.36-.87-5a21.14,21.14,0,0,0,3.23-2.54l5,1.72,3.65-5.41-3.78-3.5A19.53,19.53,0,0,0,148,94.25ZM141.25,89l-1-.14L134,87.92a7.55,7.55,0,0,0-4.23-3.48L128,78.66l-.25-.83A14,14,0,0,1,141.25,89ZM128.5,96.19A5.05,5.05,0,1,1,132.42,92,5.19,5.19,0,0,1,128.5,96.19ZM124.81,78l-.15.85-1,6a7.6,7.6,0,0,0-3.76,4l-6.09,1.7-.94.26A13.93,13.93,0,0,1,124.81,78ZM113,93.54l1,.14,6.18.91a7.59,7.59,0,0,0,4.35,3.65l1.72,5.62.3,1A13.94,13.94,0,0,1,113,93.54Zm16.43,11.1.17-1,1-5.79a7.51,7.51,0,0,0,3.86-4.17l6-1.67,1-.27A13.92,13.92,0,0,1,129.43,104.64Z" transform="translate(-13.81 -22.8)"/><path class="cls-36" d="M103.13,102.55l-.32-5.1-4.21-.56a15,15,0,0,0-1.23-3L100,90.79l-3.44-3.93L92.8,88.74A15.67,15.67,0,0,0,90,87.06l.19-4-5.25-1.24L83,85.39c-.55,0-1.11,0-1.67,0s-1.13.1-1.67.19l-2.35-3.33-5,1.91.7,4a17.12,17.12,0,0,0-2.59,2l-4-1.37-2.91,4.32,3,2.8A15.25,15.25,0,0,0,65.67,99l-4.09,1.1.32,5.09,4.21.58a14.5,14.5,0,0,0,1.22,2.93l-2.65,3.17,3.44,3.91,3.79-1.87a17,17,0,0,0,2.82,1.69l-.18,4,5.24,1.24,1.9-3.6c.56,0,1.12,0,1.68,0s1.12-.1,1.68-.19l2.34,3.32,5-1.89-.7-4a16.61,16.61,0,0,0,2.58-2l4,1.37,2.92-4.32-3-2.8a15.82,15.82,0,0,0,.84-3.07ZM90.86,94a10.42,10.42,0,0,1,2.7,5l-2.42.15a8.21,8.21,0,0,0-1.91-3.48Zm-3.31,12.58a7.9,7.9,0,0,1-3.49,1.75l0-.62a7.27,7.27,0,0,0,3-1.53Zm-9.93-11a8,8,0,0,1,3-1.38l0,.63a7.19,7.19,0,0,0-2.56,1.16Zm-2.17,4.52-.67,0a7.08,7.08,0,0,1,1.14-2.81l.51.4A6.47,6.47,0,0,0,75.45,100.17Zm0,2.38a6.48,6.48,0,0,0,1.13,2.57l-.45.47a6.93,6.93,0,0,1-1.34-3Zm1-.86a6,6,0,1,1,6.29,5.22A5.79,5.79,0,0,1,76.42,101.69Zm12.64-2.38a6.56,6.56,0,0,0-1.24-2.18l.45-.46a7,7,0,0,1,1.46,2.6Zm.3,2.36.66,0a7,7,0,0,1-.93,3.1l-.51-.41A6.37,6.37,0,0,0,89.36,101.67ZM82.93,90.52a11.75,11.75,0,0,1,6.06,2l-1.65,1.67a9.19,9.19,0,0,0-4.27-1.35Zm3.45,4.61-.46.46a7.11,7.11,0,0,0-2.72-.85l0-.63A7.81,7.81,0,0,1,86.38,95.13Zm-6-4.45L80.57,93a9.21,9.21,0,0,0-4,1.85L74.7,93.34A11.75,11.75,0,0,1,80.42,90.68ZM73,95.12l1.83,1.45a8.23,8.23,0,0,0-1.49,3.74l-2.42.15A10.44,10.44,0,0,1,73,95.12Zm.49,13.13A10.42,10.42,0,0,1,71,102.83l2.39-.15a8.16,8.16,0,0,0,1.77,3.89Zm8.26,3.86a11.83,11.83,0,0,1-6.46-2.22L77,108.22a9.25,9.25,0,0,0,4.67,1.62Zm-3.87-4.86.45-.46a7.24,7.24,0,0,0,3.15,1.1l0,.63A7.82,7.82,0,0,1,77.91,107.25Zm6.37,4.7-.14-2.27a9.2,9.2,0,0,0,4.47-2.23l1.84,1.45A11.8,11.8,0,0,1,84.28,112ZM92,107l-1.85-1.46a8.12,8.12,0,0,0,1.24-4l2.39-.15A10.44,10.44,0,0,1,92,107Z" transform="translate(-13.81 -22.8)"/><path class="cls-37" d="M104.58,58.38,101.46,56,99,57.9a12.85,12.85,0,0,0-2.34-.84l-.49-3-4-.18-.83,2.9a12,12,0,0,0-2.42.62l-2.24-2.11-3.39,2.09,1.12,2.79c-.28.28-.56.58-.83.89a10.72,10.72,0,0,0-.74,1l-3.13-.45-1.45,3.56,2.65,1.62a11.65,11.65,0,0,0-.14,2.36L77.9,70.54l1,3.67L82.11,74a11.17,11.17,0,0,0,1.36,2L82,78.69l3.12,2.38,2.48-1.9A12.24,12.24,0,0,0,90,80L90.45,83l4,.18.84-2.89a14.21,14.21,0,0,0,2.41-.62L100,81.72l3.38-2.09-1.13-2.79a10.12,10.12,0,0,0,.85-.88c.26-.31.5-.63.73-1l3.13.45,1.46-3.56-2.66-1.62a10.91,10.91,0,0,0,.13-2.35l2.83-1.38-1-3.68L104.5,63a11.67,11.67,0,0,0-1.35-2Zm-5.37,4.84-.76,1.4a6.31,6.31,0,0,1,.71,1l1.66-.08.54,1.92-1.48.72a5.65,5.65,0,0,1-.07,1.23l1.39.85-.76,1.86-1.64-.23c-.12.17-.25.34-.38.5s-.29.32-.44.46l.59,1.46-1.78,1.09-1.17-1.09a6.85,6.85,0,0,1-1.26.32l-.44,1.52-2.11-.1-.26-1.54a6.48,6.48,0,0,1-1.21-.44l-1.3,1L87.4,73.85l.76-1.4a5.81,5.81,0,0,1-.71-1l-1.66.09-.54-1.92,1.48-.72a5.65,5.65,0,0,1,.07-1.23l-1.39-.85.76-1.86,1.64.23a4.5,4.5,0,0,1,.39-.5c.14-.16.28-.32.43-.46L88,62.73l1.78-1.1L91,62.74a7.09,7.09,0,0,1,1.26-.33l.44-1.51L94.8,61l.25,1.54a7,7,0,0,1,1.23.44l1.29-1Z" transform="translate(-13.81 -22.8)"/><text class="cls-38" transform="translate(59.52 124.3) rotate(-3.61) scale(1.06 1)">B<tspan class="cls-39" x="12.3" y="0">a</tspan><tspan class="cls-40" x="24.7" y="0">c</tspan><tspan class="cls-41" x="35.71" y="0">k</tspan><tspan class="cls-42" x="46" y="0">-</tspan><tspan class="cls-43" x="57.47" y="0">E</tspan><tspan class="cls-44" x="68.93" y="0">n</tspan><tspan x="80.94" y="0">d</tspan></text><ellipse class="cls-1" cx="141.44" cy="168.54" rx="22.72" ry="21.43" transform="translate(-24.16 -13.55) rotate(-3.61)"/><ellipse class="cls-1" cx="177.92" cy="197.13" rx="15.81" ry="14.91" transform="translate(-25.89 -11.19) rotate(-3.61)"/><g class="cls-3"><ellipse class="cls-45" cx="271.32" cy="340.3" rx="171.55" ry="170.56"/></g><ellipse class="cls-46" cx="271.65" cy="339.21" rx="167.93" ry="166.97"/><path class="cls-4" d="M285.62,529.64a167.82,167.82,0,0,0,92.31-27.47c-6.19-33.62-29.74-35.54-29.74-35.54H218.32s-22.22,1.81-29.16,32.75A167.9,167.9,0,0,0,285.62,529.64Z" transform="translate(-13.81 -22.8)"/><ellipse class="cls-47" cx="270.02" cy="335.69" rx="81.06" ry="80.59"/><path class="cls-6" d="M257.68,425.62h51.93v41.31a25.9,25.9,0,0,1-25.95,25.82h0a25.89,25.89,0,0,1-26-25.82h0V425.62h0Z" transform="translate(-13.81 -22.8)"/><path class="cls-48" d="M259.32,423.7H308a1.63,1.63,0,0,1,1.64,1.64h0V465a25.9,25.9,0,0,1-26,25.83h0a25.89,25.89,0,0,1-26-25.82h0V425.34A1.65,1.65,0,0,1,259.32,423.7Z" transform="translate(-13.81 -22.8)"/><path class="cls-6" d="M257.77,445.12a75.13,75.13,0,0,0,51.94.14v-6.35H257.77Z" transform="translate(-13.81 -22.8)"/><ellipse class="cls-48" cx="270.02" cy="351.76" rx="74.44" ry="74.02"/><path class="cls-6" d="M230.81,307.23s31.37,63.32,119.88,26.55l-20.61-32.13-36.53-13Z" transform="translate(-13.81 -22.8)"/><path class="cls-47" d="M230.81,306.3s31.37,63.32,119.88,26.54l-20.61-32.13-36.53-13Z" transform="translate(-13.81 -22.8)"/><path class="cls-47" d="M230.53,302a42.84,42.84,0,0,1,10.67-17.24c14.64-14.39,38.65-17.43,51-33.84,2.95,4.56.67,11.56-4.42,13.52,11.79-.08,25.46-1.11,32.13-10.76a21.83,21.83,0,0,1-3.72,23.17c10.46.49,21.63,7.53,22.29,17.91.45,6.92-3.93,13.47-9.63,17.44s-12.64,5.79-19.45,7.28C289.48,323.86,217.56,342.12,230.53,302Z" transform="translate(-13.81 -22.8)"/><ellipse class="cls-48" cx="195.55" cy="351.69" rx="6.93" ry="12.91"/><ellipse class="cls-48" cx="344.46" cy="351.69" rx="6.93" ry="12.91"/></svg>